<svg id="Silouettes" xmlns="http://www.w3.org/2000/svg" width="621.939" height="725.63" viewBox="0 0 621.939 725.63">
    <defs>
        <style>
            .cls-1,.cls-2,.cls-3,.cls-4,.cls-5,.cls-6,.cls-7,.cls-8{fill:#fff;fill-rule:evenodd;opacity:.8}.cls-1{filter:url(#filter)}.cls-2{filter:url(#filter-2)}.cls-3{filter:url(#filter-3)}.cls-4{filter:url(#filter-4)}.cls-5{filter:url(#filter-5)}.cls-6{filter:url(#filter-6)}.cls-7{filter:url(#filter-7)}.cls-8{filter:url(#filter-8)}
        </style>
        <filter id="filter" x="796.531" y="1622.84" width="621.939" height="725.63" filterUnits="userSpaceOnUse">
            <feGaussianBlur result="blur" stdDeviation="7.746" in="SourceAlpha"/>
            <feFlood result="flood" flood-opacity=".2"/>
            <feComposite result="composite" operator="out" in2="blur"/>
            <feOffset result="offset" dy="30"/>
            <feComposite result="composite-2" operator="in" in2="SourceAlpha"/>
            <feBlend result="blend" mode="multiply" in2="SourceGraphic"/>
        </filter>
        <filter id="filter-2" x="858.719" y="1695.44" width="497.591" height="580.44" filterUnits="userSpaceOnUse">
            <feGaussianBlur result="blur" stdDeviation="7.746" in="SourceAlpha"/>
            <feFlood result="flood" flood-opacity=".2"/>
            <feComposite result="composite" operator="out" in2="blur"/>
            <feOffset result="offset" dy="30"/>
            <feComposite result="composite-2" operator="in" in2="SourceAlpha"/>
            <feBlend result="blend" mode="multiply" in2="SourceGraphic"/>
        </filter>
        <filter id="filter-3" x="908.469" y="1753.44" width="398.061" height="464.4" filterUnits="userSpaceOnUse">
            <feGaussianBlur result="blur" stdDeviation="7.746" in="SourceAlpha"/>
            <feFlood result="flood" flood-opacity=".2"/>
            <feComposite result="composite" operator="out" in2="blur"/>
            <feOffset result="offset" dy="30"/>
            <feComposite result="composite-2" operator="in" in2="SourceAlpha"/>
            <feBlend result="blend" mode="multiply" in2="SourceGraphic"/>
        </filter>
        <filter id="filter-4" x="948.281" y="1799.91" width="318.469" height="371.5" filterUnits="userSpaceOnUse">
            <feGaussianBlur result="blur" stdDeviation="7.746" in="SourceAlpha"/>
            <feFlood result="flood" flood-opacity=".2"/>
            <feComposite result="composite" operator="out" in2="blur"/>
            <feOffset result="offset" dy="30"/>
            <feComposite result="composite-2" operator="in" in2="SourceAlpha"/>
            <feBlend result="blend" mode="multiply" in2="SourceGraphic"/>
        </filter>
        <filter id="filter-5" x="980.125" y="1837.03" width="254.785" height="297.22" filterUnits="userSpaceOnUse">
            <feGaussianBlur result="blur" stdDeviation="7.746" in="SourceAlpha"/>
            <feFlood result="flood" flood-opacity=".2"/>
            <feComposite result="composite" operator="out" in2="blur"/>
            <feOffset result="offset" dy="30"/>
            <feComposite result="composite-2" operator="in" in2="SourceAlpha"/>
            <feBlend result="blend" mode="multiply" in2="SourceGraphic"/>
        </filter>
        <filter id="filter-6" x="1005.62" y="1866.78" width="203.79" height="237.75" filterUnits="userSpaceOnUse">
            <feGaussianBlur result="blur" stdDeviation="7.746" in="SourceAlpha"/>
            <feFlood result="flood" flood-opacity=".2"/>
            <feComposite result="composite" operator="out" in2="blur"/>
            <feOffset result="offset" dy="30"/>
            <feComposite result="composite-2" operator="in" in2="SourceAlpha"/>
            <feBlend result="blend" mode="multiply" in2="SourceGraphic"/>
        </filter>
        <filter id="filter-7" x="1026" y="1890.56" width="163.03" height="190.22" filterUnits="userSpaceOnUse">
            <feGaussianBlur result="blur" stdDeviation="7.746" in="SourceAlpha"/>
            <feFlood result="flood" flood-opacity=".2"/>
            <feComposite result="composite" operator="out" in2="blur"/>
            <feOffset result="offset" dy="30"/>
            <feComposite result="composite-2" operator="in" in2="SourceAlpha"/>
            <feBlend result="blend" mode="multiply" in2="SourceGraphic"/>
        </filter>
        <filter id="filter-8" x="1042.28" y="1909.56" width="130.44" height="152.19" filterUnits="userSpaceOnUse">
            <feGaussianBlur result="blur" stdDeviation="7.746" in="SourceAlpha"/>
            <feFlood result="flood" flood-opacity=".2"/>
            <feComposite result="composite" operator="out" in2="blur"/>
            <feOffset result="offset" dy="30"/>
            <feComposite result="composite-2" operator="in" in2="SourceAlpha"/>
            <feBlend result="blend" mode="multiply" in2="SourceGraphic"/>
        </filter>
    </defs>
    <path id="Sillouette" class="cls-1" d="M1286.09 2339.53c-11.29-49.67-70.71-85.93-47.57-144.96 2.49-6.35 8.35-9.31 11.52-14.58 1.41-2.35 2.06-5.05 3.6-7.29.98-1.44 3.08-2.3 3.94-3.87.73-1.33.59-2.69 1.32-4.03 2.33-4.2 7.64-6.83 10.16-10.98 2.54-4.2 5.45-9.01 9.17-12.18 4.6-3.93 9.51-6.97 14.05-10.95 2.6-2.27 4.37-5.94 6.99-8.06 1.48-1.2 3.26-1.12 4.97-2.23 2.84-1.86 4.86-5.53 6.99-8.07.96-1.16 2.76-1.72 3.59-2.96 1.31-1.95 2.09-3.97 3.3-5.96q2.91-3.33 5.83-6.65c.85-1.45.85-3.03 1.71-4.5 2.06-3.54 6.45-6.02 8.57-9.53 2.2-3.65 4.32-7.09 6.72-10.64.93-.81 1.86-1.63 2.79-2.44.66-1.11.23-2.36.94-3.56.42-.19.83-.37 1.24-.56a28.967 28.967 0 0 1 4.72-4.81c1.94-1.74 5.38-7.8 6.77-10.2 2.03-3.55 3.05-7.23 4.96-10.9.82-1.57 2.73-3.45 3.39-5.1.05-.87.11-1.74.16-2.62.53-.81 1.57-1.28 1.93-2.36 1.32-3.94 1.45-7.89 3.17-11.57a300.3 300.3 0 0 0 13.65-36.46c2.36-7.6 3.03-15.47 5.47-23.06 3.39-10.55 9.16-20.05 12.5-30.71.84-2.7.13-5.4.89-8.32 2.48-9.41 4.25-20.28 6.97-29.71 2.86-9.93 1.83-4.58 2.41-6.5 3.01-5.84 2.61-7.97 4.52-14.99 3.22-41.45-1.93-55.09-2.36-62.12l-1.86-14.1c-1.86-4.8-4.91-9.56-6.66-14.49q-1.725-8.475-3.44-16.97c-2.84-5.93-7.21-10.45-10.26-15.86-2.58-4.56-3.59-8.41-6.44-12.34-2.89-3.98-7.27-7.47-9.88-11.99a169.013 169.013 0 0 0-12.32-19.12c-1.17-1.54-1.42-3.52-2.66-4.92-4.28-4.84-11.64-5.95-16.99-9.55-.19-.41-.37-.83-.56-1.24-.92-.92-2-.76-3.17-1.42q-1.68-1.56-3.35-3.12a40.645 40.645 0 0 0-4.12-2.19l-1.72.18c-2.42-1.24-5.53-3.47-8.23-4.37-2.64-.88-4.8-.53-7.51-1.41-8.04-2.62-16.45-7.03-24.79-9.63-26.24-8.16 14.85 4.04-57.1-17.78-98.37-29.82-205.76-23.1-236.883-20.16-64.115 10.88-88.232 67.09-58.464 111.91 4.979 7.5 7.659 17.39-2.2 34.52.77-1.34-15.553 22.33-25.02 31.1-1.885 1.75-23.46 30.18-27.719 34.4-10.413 10.34-21.73 27.02-18.624 38.69 1.247 4.68 1.55 10.55 2.713 14.01 7.362 21.97-24.294 43.55-28.61 47.06 1.218-.99-19.16 18.88-22.5 21.75-6.961 6-17.976 11.61-19.924 21.49l-.253 6.09c1.781 27.41 25.692 16.25 34.5 32.9 3.245 6.13-.092 18.34-2.127 21.87-2.142 3.71-5.945 6.11-6.681 11.06-1.181 7.94 7.013 10.09 7.818 17.4-8.45 3.81-6.639 16.18-2.639 25.39 1.109 2.55 4 7.28 3.7 10.88-.479 5.75-3.1 10-4.577 14.75-3.826 12.3-7.457 28.09-1.3 43.01 1.518 3.67 4.979 7.64 7.556 10.49 5.749 6.37 15.236 9.31 24.837 10.06 27.705 2.17 80.558 7.28 83.972 7.99 15.63 3.25 33.844 9.73 33.614 26.7 0 15.64-1.82 24.88 1.5 35.59 4.376 22.62 17.44 17.69 20.868 61.53.2 2.6-1.142 6.08-1.724 8.62-.6 2.62.023 7.1.431 9.05.553 2.65-.884 5.33-1.724 7.32-4.35 10.35 269.51 9.35 291.54-1.72z" transform="translate(-796.531 -1622.84)"/>
    <path id="Sillouette-2" data-name="Sillouette" class="cls-2" d="M1250.38 2268.75c-9.04-39.73-56.57-68.74-38.06-115.96 1.99-5.09 6.68-7.45 9.21-11.67 1.13-1.88 1.65-4.04 2.88-5.83.79-1.15 2.47-1.84 3.16-3.09.58-1.07.47-2.16 1.06-3.23 1.85-3.36 6.11-5.46 8.12-8.78 2.04-3.36 4.36-7.21 7.33-9.75 3.69-3.14 7.62-5.57 11.25-8.75 2.07-1.82 3.49-4.76 5.59-6.46 1.18-.95 2.61-.89 3.98-1.78 2.27-1.49 3.88-4.42 5.58-6.45.78-.93 2.21-1.38 2.88-2.37 1.05-1.56 1.67-3.18 2.64-4.77 1.55-1.78 3.11-3.55 4.66-5.32.68-1.16.68-2.43 1.37-3.6 1.65-2.83 5.17-4.82 6.86-7.62 1.76-2.93 3.45-5.68 5.38-8.51.74-.66 1.48-1.31 2.23-1.96.52-.88.18-1.88.75-2.85.33-.15.66-.3.99-.44a22.843 22.843 0 0 1 3.77-3.85c1.55-1.4 4.31-6.24 5.42-8.17 1.63-2.83 2.44-5.78 3.97-8.71.66-1.26 2.18-2.77 2.71-4.08.04-.7.09-1.4.13-2.1.42-.64 1.26-1.02 1.55-1.88 1.05-3.16 1.16-6.32 2.53-9.27a239.12 239.12 0 0 0 10.92-29.16c1.89-6.08 2.43-12.38 4.37-18.45 2.71-8.44 7.33-16.04 10-24.57.68-2.16.11-4.32.72-6.65 1.98-7.53 3.4-16.23 5.57-23.77 2.29-7.94 1.47-3.66 1.93-5.2 2.41-4.67 2.09-6.38 3.62-11.99 2.57-33.17-1.54-44.07-1.89-49.7q-.75-5.64-1.49-11.28c-1.49-3.83-3.92-7.65-5.32-11.59q-1.38-6.78-2.76-13.58c-2.27-4.74-5.77-8.36-8.21-12.68-2.06-3.65-2.87-6.73-5.15-9.87-2.31-3.19-5.81-5.98-7.9-9.6a134.971 134.971 0 0 0-9.86-15.29c-.94-1.24-1.14-2.82-2.13-3.94-3.42-3.88-9.31-4.76-13.59-7.64-.15-.33-.3-.66-.45-1-.73-.73-1.6-.6-2.54-1.13-.89-.83-1.78-1.66-2.67-2.5a30.3 30.3 0 0 0-3.3-1.74c-.46.04-.91.09-1.37.13-1.94-.99-4.43-2.77-6.59-3.49-2.11-.7-3.84-.42-6.01-1.13-6.43-2.09-13.15-5.62-19.83-7.7-20.99-6.53 11.88 3.23-45.68-14.22-78.69-23.86-164.6-18.48-189.51-16.14-51.287 8.71-70.581 53.68-46.766 89.54 3.983 6 6.127 13.91-1.763 27.61.615-1.07-12.443 17.86-20.016 24.88-1.509 1.4-18.768 24.14-22.175 27.52-8.332 8.27-17.385 21.61-14.9 30.95 1 3.75 1.24 8.44 2.17 11.22 5.89 17.57-19.435 34.83-22.888 37.64.975-.8-15.328 15.1-18 17.4-5.569 4.8-14.381 9.28-15.94 17.2l-.2 4.87c1.425 21.92 20.554 12.99 27.6 26.31 2.6 4.91-.073 14.67-1.7 17.5-1.714 2.97-4.756 4.89-5.345 8.85-.945 6.35 5.61 8.07 6.254 13.92-6.76 3.05-5.311 12.94-2.111 20.31.887 2.04 3.2 5.82 2.957 8.7-.384 4.61-2.478 8-3.662 11.81-3.06 9.83-5.965 22.46-1.037 34.4 1.215 2.94 3.984 6.11 6.045 8.4 4.6 5.09 12.19 7.44 19.87 8.04 22.164 1.73 64.446 5.83 67.178 6.4 12.5 2.59 27.076 7.78 26.9 21.35 0 12.52-1.46 19.91 1.2 28.48 3.5 18.09 13.95 14.14 16.69 49.22.16 2.08-.91 4.86-1.38 6.9-.48 2.09.02 5.67.35 7.23.44 2.12-.71 4.27-1.38 5.86-3.491 8.28 215.599 7.48 233.229-1.38z" transform="translate(-796.531 -1622.84)"/>
    <path id="Sillouette-3" data-name="Sillouette" class="cls-3" d="M1221.8 2212.14c-7.22-31.8-45.25-55-30.44-92.78 1.59-4.07 5.34-5.96 7.37-9.33.9-1.5 1.32-3.23 2.3-4.67.63-.92 1.97-1.47 2.53-2.47.47-.85.37-1.73.84-2.58 1.49-2.69 4.89-4.37 6.5-7.03 1.63-2.69 3.49-5.77 5.87-7.8 2.95-2.51 6.09-4.45 9-7 1.66-1.45 2.79-3.8 4.47-5.16.94-.77 2.09-.72 3.18-1.43 1.82-1.19 3.11-3.54 4.47-5.16.62-.74 1.77-1.1 2.3-1.9.84-1.24 1.34-2.54 2.11-3.81q1.875-2.13 3.73-4.26c.55-.93.55-1.94 1.1-2.88 1.32-2.26 4.13-3.85 5.48-6.1 1.41-2.34 2.77-4.54 4.31-6.8.59-.53 1.19-1.05 1.78-1.57.42-.71.15-1.51.6-2.28.27-.12.53-.24.8-.35a18.233 18.233 0 0 1 3.01-3.08c1.24-1.12 3.45-4.99 4.34-6.53 1.3-2.27 1.95-4.63 3.17-6.98.53-1 1.75-2.21 2.17-3.26.04-.56.07-1.12.11-1.68a6.642 6.642 0 0 0 1.23-1.51c.84-2.52.93-5.05 2.03-7.41a192.153 192.153 0 0 0 8.73-23.32c1.52-4.87 1.95-9.91 3.5-14.77 2.17-6.75 5.87-12.83 8-19.65.54-1.73.09-3.46.58-5.32 1.58-6.03 2.71-12.99 4.45-19.02 1.84-6.35 1.18-2.93 1.55-4.16 1.93-3.74 1.67-5.1 2.89-9.59 2.06-26.53-1.23-35.26-1.51-39.76-.4-3.01-.79-6.02-1.19-9.02-1.19-3.07-3.14-6.12-4.26-9.27q-1.11-5.445-2.2-10.87c-1.82-3.79-4.62-6.69-6.57-10.15-1.65-2.92-2.3-5.38-4.13-7.89-1.84-2.55-4.64-4.79-6.31-7.68a108.149 108.149 0 0 0-7.89-12.23c-.75-.99-.91-2.26-1.7-3.16-2.74-3.1-7.45-3.8-10.88-6.11-.12-.26-.24-.53-.35-.79-.59-.59-1.28-.49-2.04-.91-.71-.66-1.42-1.33-2.14-2a26.17 26.17 0 0 0-2.63-1.4c-.37.04-.74.08-1.1.11a43.976 43.976 0 0 0-5.27-2.79c-1.69-.56-3.07-.34-4.81-.9-5.14-1.68-10.52-4.5-15.87-6.16-16.79-5.23 9.51 2.58-36.54-11.38-62.95-19.09-131.68-14.79-151.6-12.91-41.037 6.97-56.471 42.94-37.42 71.63 3.19 4.8 4.9 11.12-1.411 22.09.493-.86-9.953 14.29-16.012 19.9-1.207 1.12-15.014 19.32-17.74 22.02-6.665 6.62-13.908 17.29-11.92 24.76.8 3 .992 6.75 1.736 8.97 4.712 14.06-15.548 27.87-18.31 30.11.779-.63-12.263 12.09-14.4 13.93-4.455 3.83-11.5 7.42-12.752 13.75l-.161 3.9c1.14 17.54 16.443 10.4 22.082 21.05 2.077 3.93-.059 11.74-1.361 14-1.371 2.37-3.8 3.91-4.276 7.08-.756 5.08 4.488 6.45 5 11.14-5.408 2.43-4.248 10.35-1.688 16.24.709 1.63 2.558 4.66 2.365 6.97-.307 3.68-1.982 6.4-2.929 9.44-2.449 7.87-4.773 17.97-.83 27.52.972 2.35 3.187 4.89 4.836 6.72 3.679 4.07 9.751 5.95 15.9 6.43 17.731 1.39 51.557 4.67 53.74 5.12 10.01 2.08 21.66 6.22 21.52 17.09 0 10.01-1.17 15.92.96 22.77 2.8 14.48 11.16 11.32 13.35 39.38.13 1.67-.73 3.89-1.1 5.52a16.813 16.813 0 0 0 .27 5.79c.36 1.69-.56 3.41-1.1 4.69-2.789 6.62 172.481 5.98 186.581-1.1z" transform="translate(-796.531 -1622.84)"/>
    <path id="Sillouette-4" data-name="Sillouette" class="cls-4" d="M1198.95 2166.84c-5.79-25.43-36.21-43.99-24.36-74.22 1.27-3.25 4.28-4.77 5.9-7.47.72-1.2 1.05-2.58 1.84-3.73.5-.73 1.58-1.18 2.02-1.98.37-.68.3-1.38.68-2.06 1.19-2.15 3.91-3.5 5.2-5.62a25.6 25.6 0 0 1 4.69-6.24c2.36-2.01 4.87-3.57 7.2-5.6 1.32-1.17 2.23-3.05 3.57-4.13.76-.62 1.68-.58 2.55-1.15 1.45-.95 2.49-2.83 3.57-4.13.5-.59 1.42-.88 1.85-1.51.67-1 1.07-2.04 1.69-3.06l2.98-3.4c.43-.74.44-1.55.88-2.31 1.05-1.8 3.3-3.07 4.38-4.87 1.13-1.87 2.21-3.63 3.45-5.45.47-.42.95-.83 1.42-1.25.34-.57.12-1.21.48-1.82.22-.1.43-.19.64-.29a15.541 15.541 0 0 1 2.41-2.46c1-.89 2.76-3.99 3.47-5.23 1.04-1.81 1.56-3.7 2.54-5.57.42-.81 1.4-1.77 1.73-2.62l.09-1.33a5.672 5.672 0 0 0 .99-1.21c.67-2.03.74-4.04 1.62-5.93a153.8 153.8 0 0 0 6.99-18.66c1.21-3.9 1.55-7.93 2.8-11.82 1.73-5.4 4.69-10.26 6.4-15.72.43-1.38.06-2.76.46-4.26 1.26-4.81 2.17-10.38 3.56-15.21 1.47-5.08.94-2.34 1.24-3.33 1.54-2.99 1.34-4.08 2.31-7.67 1.65-21.23-.98-28.21-1.21-31.81-.32-2.4-.63-4.81-.95-7.22-.95-2.45-2.51-4.89-3.41-7.41-.59-2.9-1.17-5.8-1.76-8.69-1.45-3.04-3.69-5.35-5.25-8.12-1.32-2.34-1.84-4.31-3.3-6.32-1.48-2.04-3.72-3.83-5.06-6.14a85.411 85.411 0 0 0-6.31-9.79c-.6-.79-.73-1.8-1.36-2.52-2.19-2.48-5.96-3.04-8.7-4.89-.09-.21-.19-.42-.28-.64a6.546 6.546 0 0 0-1.63-.72c-.57-.53-1.14-1.07-1.71-1.6a20.81 20.81 0 0 0-2.11-1.12l-.88.09a34.5 34.5 0 0 0-4.22-2.23c-1.35-.46-2.45-.27-3.84-.73-4.12-1.34-8.42-3.6-12.7-4.92-13.43-4.18 7.61 2.06-29.23-9.11-50.36-15.27-105.35-11.83-121.28-10.32-32.83 5.57-45.18 34.35-29.94 57.3 2.55 3.84 3.92 8.9-1.13 17.67.4-.69-7.96 11.43-12.81 15.92-.96.9-12.007 15.45-14.188 17.62-5.331 5.29-11.125 13.83-9.535 19.8.638 2.4.794 5.4 1.388 7.18 3.77 11.25-12.438 22.29-14.647 24.09.623-.51-9.81 9.67-11.519 11.14-3.564 3.07-9.2 5.94-10.2 11l-.13 3.12c.912 14.03 13.155 8.32 17.666 16.85 1.662 3.13-.047 9.38-1.089 11.19-1.1 1.9-3.043 3.13-3.42 5.67-.605 4.06 3.59 5.16 4 8.91-4.326 1.95-3.4 8.28-1.351 12.99.568 1.31 2.047 3.73 1.893 5.58-.246 2.94-1.586 5.11-2.344 7.55-1.959 6.29-3.817 14.38-.663 22.01a21.307 21.307 0 0 0 3.868 5.38c2.944 3.26 7.8 4.76 12.717 5.15 14.185 1.11 41.243 3.73 42.993 4.09 8 1.66 17.33 4.98 17.21 13.67 0 8.01-.93 12.74.77 18.22 2.24 11.58 8.93 9.06 10.68 31.51.11 1.33-.58 3.11-.88 4.41a13.439 13.439 0 0 0 .22 4.63c.29 1.36-.45 2.73-.88 3.75-2.229 5.3 137.981 4.79 149.271-.88z" transform="translate(-796.531 -1622.84)"/>
    <path id="Sillouette-5" data-name="Sillouette" class="cls-5" d="M1180.66 2130.6c-4.63-20.34-28.96-35.19-19.49-59.37 1.02-2.61 3.43-3.82 4.72-5.98.58-.96.85-2.06 1.48-2.98.4-.59 1.26-.94 1.61-1.58.3-.55.24-1.11.54-1.66.96-1.72 3.13-2.79 4.16-4.49a20.638 20.638 0 0 1 3.76-4.99c1.89-1.61 3.9-2.86 5.76-4.49 1.06-.93 1.78-2.43 2.86-3.3.6-.49 1.34-.46 2.03-.91 1.17-.77 1.99-2.27 2.86-3.31a17.68 17.68 0 0 0 1.48-1.21c.54-.8.85-1.63 1.35-2.44.8-.91 1.59-1.82 2.39-2.73.34-.59.35-1.24.7-1.84.84-1.45 2.64-2.46 3.51-3.9.9-1.5 1.77-2.91 2.75-4.36.38-.33.76-.67 1.14-1 .27-.45.1-.97.39-1.46.17-.07.34-.15.51-.23a11.957 11.957 0 0 1 1.93-1.97 24.85 24.85 0 0 0 2.77-4.18c.84-1.45 1.25-2.96 2.03-4.46.34-.64 1.12-1.41 1.39-2.09.02-.36.05-.71.07-1.07a4.236 4.236 0 0 0 .79-.97c.54-1.61.59-3.23 1.3-4.74a123.864 123.864 0 0 0 5.59-14.93c.97-3.11 1.24-6.34 2.24-9.45 1.39-4.32 3.75-8.21 5.12-12.58.34-1.1.05-2.21.36-3.4 1.02-3.86 1.74-8.31 2.86-12.18 1.17-4.06.75-1.87.99-2.66 1.23-2.39 1.07-3.26 1.85-6.13 1.32-16.99-.79-22.57-.97-25.45q-.39-2.88-.76-5.78c-.76-1.96-2.01-3.91-2.73-5.93l-1.41-6.95c-1.16-2.43-2.95-4.28-4.2-6.5-1.06-1.86-1.47-3.44-2.64-5.05-1.18-1.63-2.98-3.06-4.04-4.91a68.964 68.964 0 0 0-5.05-7.83c-.48-.64-.58-1.45-1.09-2.02-1.76-1.98-4.77-2.44-6.96-3.91-.08-.17-.15-.34-.23-.51a5.136 5.136 0 0 0-1.3-.58l-1.37-1.28a14.592 14.592 0 0 0-1.69-.89c-.23.02-.47.04-.7.07a27.729 27.729 0 0 0-3.37-1.79c-1.09-.36-1.97-.22-3.08-.58-3.29-1.07-6.74-2.88-10.16-3.94-10.74-3.35 6.09 1.65-23.38-7.29-40.29-12.21-84.28-9.46-97.03-8.26-26.26 4.46-36.14 27.48-23.95 45.85 2.04 3.07 3.14 7.12-.9 14.13.32-.55-6.37 9.15-10.25 12.74-.77.72-9.61 12.36-11.35 14.09-4.27 4.24-8.9 11.07-7.63 15.85.51 1.92.64 4.32 1.11 5.74 3.02 9-9.949 17.83-11.717 19.27.5-.4-7.848 7.74-9.215 8.91-2.851 2.46-7.363 4.76-8.161 8.81l-.1 2.49c.729 11.23 10.523 6.66 14.133 13.48 1.329 2.51-.038 7.51-.871 8.95-.878 1.52-2.435 2.51-2.737 4.53-.484 3.25 2.873 4.14 3.2 7.13-3.461 1.56-2.719 6.63-1.081 10.4.454 1.04 1.637 2.98 1.514 4.46-.2 2.35-1.269 4.09-1.875 6.04-1.567 5.04-3.054 11.5-.53 17.61a17.084 17.084 0 0 0 3.094 4.3c2.355 2.61 6.237 3.81 10.177 4.12 11.34.89 32.99 2.99 34.39 3.28 6.4 1.33 13.86 3.98 13.77 10.93 0 6.41-.75 10.19.61 14.58 1.8 9.26 7.15 7.24 8.55 25.2a13.562 13.562 0 0 1-.7 3.53 10.934 10.934 0 0 0 .17 3.71 5.261 5.261 0 0 1-.7 3c-1.791 4.24 110.379 3.83 119.409-.71z" transform="translate(-796.531 -1622.84)"/>
    <path id="Sillouette-6" data-name="Sillouette" class="cls-6" d="M1166.03 2101.61c-3.7-16.27-23.17-28.15-15.59-47.5.82-2.08 2.74-3.05 3.78-4.78.46-.76.67-1.65 1.18-2.38.32-.48 1.01-.76 1.29-1.27.24-.44.19-.88.43-1.32.76-1.38 2.51-2.24 3.33-3.6a16.445 16.445 0 0 1 3-3.99c1.51-1.29 3.12-2.28 4.61-3.59.85-.74 1.43-1.94 2.29-2.64a17.7 17.7 0 0 1 1.63-.73 12.665 12.665 0 0 0 2.29-2.65c.31-.37.9-.56 1.18-.97.43-.63.68-1.3 1.08-1.95.63-.73 1.27-1.45 1.91-2.18.27-.47.28-.99.56-1.47.67-1.16 2.11-1.97 2.81-3.12.72-1.2 1.41-2.33 2.2-3.49.3-.27.61-.53.91-.8.22-.36.08-.77.31-1.17.14-.06.27-.12.41-.18a9.562 9.562 0 0 1 1.54-1.58 19.2 19.2 0 0 0 2.22-3.34c.67-1.16 1-2.37 1.63-3.57.26-.51.89-1.13 1.11-1.67.01-.29.03-.57.05-.86a3.208 3.208 0 0 0 .63-.77 34.714 34.714 0 0 1 1.04-3.8 97.567 97.567 0 0 0 4.47-11.94c.78-2.49 1-5.07 1.8-7.56 1.11-3.46 3-6.57 4.09-10.06.28-.89.04-1.77.29-2.73.81-3.08 1.4-6.64 2.29-9.73.93-3.26.6-1.5.79-2.13.98-1.92.85-2.62 1.48-4.91 1.05-13.59-.63-18.06-.78-20.36l-.6-4.62c-.61-1.57-1.61-3.13-2.19-4.75-.37-1.85-.75-3.71-1.12-5.56-.93-1.94-2.37-3.42-3.37-5.2a38.226 38.226 0 0 0-2.11-4.04c-.94-1.3-2.38-2.45-3.23-3.93a55.748 55.748 0 0 0-4.04-6.26c-.39-.51-.47-1.16-.87-1.62-1.41-1.58-3.82-1.95-5.57-3.13-.06-.13-.12-.27-.18-.4a4.119 4.119 0 0 0-1.04-.47c-.37-.34-.73-.68-1.1-1.02a13.815 13.815 0 0 0-1.35-.72l-.56.06a23.134 23.134 0 0 0-2.7-1.43c-.87-.29-1.57-.17-2.46-.46-2.63-.86-5.39-2.31-8.12-3.16-8.6-2.67 4.86 1.32-18.72-5.82-32.23-9.78-67.42-7.57-77.62-6.61-21.01 3.57-28.91 21.98-19.15 36.67 1.63 2.46 2.51 5.7-.73 11.31.26-.44-5.09 7.32-8.19 10.19-.62.57-7.69 9.89-9.09 11.28-3.41 3.38-7.12 8.85-6.1 12.67.41 1.54.51 3.46.89 4.6 2.41 7.19-7.96 14.26-9.38 15.41.4-.32-6.27 6.19-7.37 7.13-2.28 1.97-5.89 3.8-6.53 7.04-.02.67-.05 1.33-.08 2 .58 8.98 8.42 5.32 11.31 10.78 1.06 2.01-.03 6.01-.7 7.17-.7 1.21-1.95 2-2.19 3.62-.39 2.6 2.3 3.3 2.56 5.7-2.77 1.25-2.17 5.3-.86 8.32.36.84 1.31 2.39 1.21 3.57-.16 1.88-1.02 3.27-1.5 4.83-1.25 4.03-2.44 9.2-.43 14.09a13.72 13.72 0 0 0 2.48 3.44c1.88 2.09 4.99 3.05 8.14 3.3 9.08.71 26.4 2.38 27.51 2.62 5.13 1.06 11.09 3.18 11.02 8.74 0 5.13-.6 8.16.49 11.67 1.44 7.41 5.72 5.79 6.84 20.16a10.709 10.709 0 0 1-.57 2.82 8.694 8.694 0 0 0 .15 2.97 4.178 4.178 0 0 1-.57 2.4c-1.43 3.39 88.31 3.06 95.53-.57z" transform="translate(-796.531 -1622.84)"/>
    <path id="Sillouette-7" data-name="Sillouette" class="cls-7" d="M1154.33 2078.42c-2.96-13.02-18.54-22.52-12.47-38 .65-1.66 2.19-2.44 3.02-3.82.37-.62.54-1.32.94-1.91.26-.38.81-.61 1.03-1.01.2-.35.16-.71.35-1.06.61-1.1 2-1.79 2.66-2.88a13.069 13.069 0 0 1 2.41-3.19c1.2-1.03 2.49-1.83 3.68-2.87.68-.6 1.15-1.56 1.83-2.12.39-.31.86-.29 1.31-.58a10.345 10.345 0 0 0 1.83-2.12c.25-.3.72-.45.94-.77.34-.51.55-1.04.86-1.57l1.53-1.74c.22-.38.23-.79.45-1.18.54-.93 1.69-1.58 2.25-2.5.57-.95 1.13-1.86 1.76-2.79.24-.21.49-.42.73-.64.17-.28.06-.61.25-.93.11-.05.21-.1.32-.14a7.387 7.387 0 0 1 1.24-1.26 15.749 15.749 0 0 0 1.77-2.68c.54-.93.8-1.9 1.3-2.86.22-.41.72-.9.89-1.33.02-.23.03-.46.05-.69a2.829 2.829 0 0 0 .5-.62 28.642 28.642 0 0 1 .83-3.03 78.392 78.392 0 0 0 3.58-9.56c.62-1.99.8-4.06 1.43-6.05.89-2.76 2.41-5.25 3.28-8.05.22-.7.03-1.41.23-2.18.65-2.46 1.12-5.31 1.83-7.79.75-2.6.48-1.2.63-1.7.79-1.53.69-2.09 1.19-3.93a57.057 57.057 0 0 0-.62-16.28c-.16-1.23-.33-2.47-.49-3.7-.49-1.26-1.28-2.51-1.74-3.8-.3-1.48-.61-2.96-.91-4.45-.74-1.55-1.89-2.74-2.69-4.15a29.776 29.776 0 0 0-1.69-3.24 38.53 38.53 0 0 1-2.58-3.14 44.989 44.989 0 0 0-3.23-5.01c-.31-.41-.38-.93-.7-1.3-1.12-1.26-3.05-1.55-4.46-2.5a3.09 3.09 0 0 0-.14-.32 3.13 3.13 0 0 0-.83-.37l-.88-.82a10.546 10.546 0 0 0-1.08-.58c-.15.02-.3.03-.45.05a17.732 17.732 0 0 0-2.16-1.14c-.69-.24-1.26-.14-1.97-.37-2.1-.69-4.31-1.85-6.5-2.53-6.87-2.14 3.9 1.06-14.97-4.66-25.78-7.82-53.93-6.06-62.09-5.29-16.81 2.86-23.13 17.59-15.33 29.34 1.31 1.97 2.01 4.56-.58 9.05.21-.35-4.07 5.85-6.55 8.15-.5.46-6.15 7.91-7.27 9.02-2.73 2.71-5.7 7.08-4.88 10.14.32 1.23.4 2.77.71 3.68 1.93 5.76-6.37 11.41-7.5 12.33.32-.26-5.02 4.95-5.9 5.7-1.82 1.58-4.71 3.05-5.22 5.64-.02.53-.05 1.06-.07 1.6.47 7.18 6.74 4.25 9.05 8.62.85 1.61-.03 4.81-.56 5.73-.56.97-1.56 1.61-1.75 2.9-.31 2.08 1.84 2.65 2.05 4.56-2.22 1-1.74 4.24-.69 6.66a6.975 6.975 0 0 1 .96 2.85 16.388 16.388 0 0 1-1.2 3.87c-1 3.22-1.95 7.36-.34 11.27a11.262 11.262 0 0 0 1.98 2.75c1.51 1.67 4 2.44 6.52 2.64 7.26.57 21.11 1.91 22.01 2.09 4.1.86 8.87 2.55 8.81 7 0 4.1-.48 6.52.39 9.33 1.15 5.93 4.58 4.64 5.47 16.13a8.1 8.1 0 0 1-.45 2.26 6.768 6.768 0 0 0 .12 2.37 3.384 3.384 0 0 1-.46 1.92c-1.14 2.72 70.65 2.45 76.43-.45z" transform="translate(-796.531 -1622.84)"/>
    <path id="Sillouette-8" data-name="Sillouette" class="cls-8" d="M1144.97 2059.87c-2.37-10.42-14.83-18.02-9.98-30.4.52-1.33 1.75-1.95 2.42-3.06.29-.49.43-1.06.75-1.53a10.576 10.576 0 0 0 .83-.81c.15-.28.12-.56.27-.84.49-.89 1.61-1.44 2.13-2.31a10.578 10.578 0 0 1 1.93-2.55c.96-.83 1.99-1.46 2.94-2.3.55-.47.92-1.24 1.47-1.69.31-.25.68-.23 1.04-.47a8.194 8.194 0 0 0 1.47-1.69 9.147 9.147 0 0 0 .75-.62c.28-.41.44-.83.69-1.25.41-.46.82-.93 1.22-1.39.18-.31.18-.64.36-.95.44-.74 1.36-1.26 1.8-2 .46-.76.91-1.48 1.41-2.23.2-.17.39-.34.59-.51.13-.23.04-.49.19-.75a2.029 2.029 0 0 0 .26-.11 5.907 5.907 0 0 1 .99-1.01 12.823 12.823 0 0 0 1.42-2.14c.43-.74.64-1.52 1.04-2.29a12.391 12.391 0 0 0 .71-1.07c.01-.18.03-.36.04-.55a1.947 1.947 0 0 0 .4-.49 23.441 23.441 0 0 1 .67-2.43 62.829 62.829 0 0 0 2.86-7.64c.49-1.6.64-3.25 1.15-4.84.71-2.21 1.92-4.2 2.62-6.44.17-.57.02-1.13.18-1.74.52-1.98.9-4.26 1.47-6.24.6-2.08.38-.96.5-1.36a12.3 12.3 0 0 0 .95-3.14 45.2 45.2 0 0 0-.5-13.03l-.39-2.96c-.39-1-1.02-2-1.39-3.03-.24-1.19-.48-2.38-.72-3.56-.6-1.25-1.52-2.2-2.16-3.33a25.107 25.107 0 0 0-1.35-2.59 30.717 30.717 0 0 1-2.07-2.51 34.569 34.569 0 0 0-2.58-4.01c-.25-.33-.3-.74-.56-1.03-.9-1.02-2.44-1.25-3.56-2.01-.04-.08-.08-.17-.12-.26a2.264 2.264 0 0 0-.67-.29c-.23-.22-.46-.44-.7-.66a9.146 9.146 0 0 0-.86-.46c-.12.01-.24.03-.36.04a14.239 14.239 0 0 0-1.73-.92c-.55-.18-1-.11-1.57-.29-1.69-.55-3.45-1.48-5.2-2.02-5.5-1.71 3.11.84-11.98-3.73-20.63-6.26-43.15-4.85-49.67-4.23-13.45 2.28-18.51 14.07-12.27 23.47 1.05 1.57 1.61 3.65-.46 7.24a63.729 63.729 0 0 1-5.24 6.52c-.4.37-4.92 6.33-5.82 7.22-2.18 2.16-4.55 5.66-3.9 8.11.26.98.32 2.21.57 2.94 1.54 4.61-5.1 9.13-6 9.87.25-.21-4.02 3.96-4.72 4.56-1.46 1.26-3.77 2.43-4.18 4.51-.02.42-.04.85-.05 1.27.37 5.75 5.38 3.41 7.23 6.9.68 1.29-.02 3.85-.44 4.59-.45.78-1.25 1.28-1.41 2.32-.24 1.66 1.48 2.11 1.64 3.65-1.77.8-1.39 3.39-.55 5.32a5.712 5.712 0 0 1 .78 2.28 13.4 13.4 0 0 1-.96 3.1c-.81 2.58-1.57 5.89-.28 9.02a8.89 8.89 0 0 0 1.59 2.2 7.813 7.813 0 0 0 5.21 2.11c5.81.45 16.89 1.52 17.61 1.67 3.28.68 7.1 2.04 7.05 5.6 0 3.28-.38 5.22.31 7.47.92 4.74 3.66 3.7 4.38 12.9a7.262 7.262 0 0 1-.36 1.81 5.3 5.3 0 0 0 .09 1.89 2.792 2.792 0 0 1-.36 1.54c-.92 2.17 56.51 1.96 61.14-.36z" transform="translate(-796.531 -1622.84)"/>
</svg>
